<?xml version="1.0" encoding="UTF-8"?>
<svg version="1.1" xmlns="http://www.w3.org/2000/svg" width="180" height="180">
<path d="M0 0 C59.4 0 118.8 0 180 0 C180 59.4 180 118.8 180 180 C120.6 180 61.2 180 0 180 C0 120.6 0 61.2 0 0 Z " fill="#000001" transform="translate(0,0)"/>
<path d="M0 0 C0.81739655 -0.00307663 1.63479309 -0.00615326 2.47695923 -0.00932312 C3.79426529 0.00145515 3.79426529 0.00145515 5.13818359 0.01245117 C6.49331558 0.0131385 6.49331558 0.0131385 7.87582397 0.01383972 C9.78392858 0.01685962 11.69203077 0.02473811 13.60009766 0.03710938 C16.53215185 0.05539205 19.46389079 0.05761886 22.39599609 0.05737305 C24.24756134 0.06228725 26.09912444 0.06811515 27.95068359 0.07495117 C29.27406235 0.07662041 29.27406235 0.07662041 30.62417603 0.07832336 C36.79556718 0.12686601 36.79556718 0.12686601 37.91162109 1.24291992 C38.03764163 3.34423913 38.0874133 5.4503578 38.09912109 7.55541992 C38.11330078 8.70655273 38.12748047 9.85768555 38.14208984 11.04370117 C37.91162109 14.24291992 37.91162109 14.24291992 35.91162109 18.24291992 C29.64162109 17.91291992 23.37162109 17.58291992 16.91162109 17.24291992 C16.91162109 18.89291992 16.91162109 20.54291992 16.91162109 22.24291992 C22.85162109 22.24291992 28.79162109 22.24291992 34.91162109 22.24291992 C35.16162109 34.86791992 35.16162109 34.86791992 32.91162109 38.24291992 C30.12309219 38.46399779 27.56508928 38.52399528 24.78662109 38.43041992 C23.65546875 38.41011719 23.65546875 38.41011719 22.50146484 38.3894043 C20.63787982 38.35401977 18.77466132 38.30021159 16.91162109 38.24291992 C16.91162109 39.56291992 16.91162109 40.88291992 16.91162109 42.24291992 C17.54253662 42.23768311 18.17345215 42.23244629 18.82348633 42.22705078 C21.66535456 42.20634166 24.50720697 42.19327926 27.34912109 42.18041992 C28.83895508 42.16785156 28.83895508 42.16785156 30.35888672 42.1550293 C31.77524414 42.15019531 31.77524414 42.15019531 33.22021484 42.14526367 C34.09476318 42.14002686 34.96931152 42.13479004 35.87036133 42.12939453 C37.91162109 42.24291992 37.91162109 42.24291992 38.91162109 43.24291992 C39.03782006 45.15644839 39.08742811 47.07527015 39.09912109 48.99291992 C39.11330078 50.03963867 39.12748047 51.08635742 39.14208984 52.16479492 C38.9085656 55.2837289 38.12900181 57.39261461 36.91162109 60.24291992 C30.96680928 60.29226391 25.02211601 60.32861274 19.07714844 60.3527832 C17.05368982 60.36285663 15.03024582 60.37651588 13.00683594 60.39379883 C10.1026652 60.41798839 7.19868649 60.42938941 4.29443359 60.43823242 C2.93186935 60.45371628 2.93186935 60.45371628 1.54177856 60.46951294 C0.70105804 60.469664 -0.13966248 60.46981506 -1.00585938 60.4699707 C-2.11838577 60.47663254 -2.11838577 60.47663254 -3.25338745 60.48342896 C-5.08837891 60.24291992 -5.08837891 60.24291992 -7.08837891 58.24291992 C-7.34907532 55.88989258 -7.34907532 55.88989258 -7.36303711 52.90698242 C-7.37256912 51.79242676 -7.38210114 50.67787109 -7.391922 49.52954102 C-7.39101059 48.32120605 -7.39009918 47.11287109 -7.38916016 45.86791992 C-7.39344528 44.63251465 -7.39773041 43.39710937 -7.40214539 42.12426758 C-7.40937271 38.83701462 -7.40625377 35.54994383 -7.40057373 32.26269531 C-7.4008786 30.24492188 -7.41092066 28.22744145 -7.42456055 26.2097168 C-7.44895974 22.34564297 -7.4532194 18.48206091 -7.45166016 14.61791992 C-7.4608699 13.40958496 -7.47007965 12.20125 -7.47956848 10.95629883 C-7.47333969 9.84174316 -7.4671109 8.7271875 -7.46069336 7.57885742 C-7.46132278 6.59449707 -7.46195221 5.61013672 -7.46260071 4.59594727 C-7.33910751 3.81944824 -7.21561432 3.04294922 -7.08837891 2.24291992 C-4.03046414 0.20431008 -3.43660539 -0.00681417 0 0 Z " fill="#D7A5F8" transform="translate(15.08837890625,62.757080078125)"/>
<path d="M0 0 C1.82058176 1.82058176 1.17875418 4.27803639 1.23046875 6.69921875 C1 9 1 9 -1 15 C-7.435 15.495 -7.435 15.495 -14 16 C-14.33 17.32 -14.66 18.64 -15 20 C-13.60974609 19.98259766 -13.60974609 19.98259766 -12.19140625 19.96484375 C-10.99386719 19.95582031 -9.79632813 19.94679688 -8.5625 19.9375 C-7.36753906 19.92589844 -6.17257813 19.91429688 -4.94140625 19.90234375 C-2 20 -2 20 -1 21 C-0.84818743 22.76628086 -0.77817328 24.53993085 -0.75 26.3125 C-0.72421875 27.27800781 -0.6984375 28.24351563 -0.671875 29.23828125 C-1.05881259 32.49500594 -1.72060133 33.67092846 -4 36 C-6.48046875 36.390625 -6.48046875 36.390625 -9.1875 36.25 C-10.08855469 36.21390625 -10.98960938 36.1778125 -11.91796875 36.140625 C-12.60503906 36.09421875 -13.29210937 36.0478125 -14 36 C-13.99214478 37.17357056 -13.99214478 37.17357056 -13.98413086 38.37084961 C-13.96342894 41.89305833 -13.95036162 45.4152543 -13.9375 48.9375 C-13.92912109 50.16919922 -13.92074219 51.40089844 -13.91210938 52.66992188 C-13.90727539 54.4246582 -13.90727539 54.4246582 -13.90234375 56.21484375 C-13.89448853 57.84087524 -13.89448853 57.84087524 -13.88647461 59.49975586 C-14 62 -14 62 -15 63 C-16.63472882 63.08700342 -18.27314055 63.10701063 -19.91015625 63.09765625 C-20.800979 63.09515869 -21.69180176 63.09266113 -22.60961914 63.09008789 C-23.74906982 63.08098389 -24.88852051 63.07187988 -26.0625 63.0625 C-29.671875 63.041875 -33.28125 63.02125 -37 63 C-37 54.09 -37 45.18 -37 36 C-38.65 36 -40.3 36 -42 36 C-44 34 -44 34 -44.265625 32.01171875 C-44.23575234 27.56815987 -44.08605145 24.04172469 -42 20 C-40.35 20 -38.7 20 -37 20 C-37.061875 18.989375 -37.12375 17.97875 -37.1875 16.9375 C-36.92018996 11.3239891 -35.29803479 7.63181516 -31.8125 3.25 C-22.731226 -4.0150192 -10.64479231 -3.48002826 0 0 Z " fill="#D9A7FA" transform="translate(101,59)"/>
<path d="M0 0 C1.22203125 0.01546875 2.4440625 0.0309375 3.703125 0.046875 C6.75 0.25 6.75 0.25 8.75 1.25 C8.75 6.2 8.75 11.15 8.75 16.25 C10.049375 16.229375 11.34875 16.20875 12.6875 16.1875 C14.04165633 16.16600546 15.39756083 16.17851801 16.75 16.25 C18.31095477 17.81095477 17.91961928 19.34000895 17.9375 21.5 C17.90819716 25.17457661 17.46100294 27.9349318 15.75 31.25 C13.44 31.25 11.13 31.25 8.75 31.25 C9.08 37.52 9.41 43.79 9.75 50.25 C12.06 50.91 14.37 51.57 16.75 52.25 C16.83167446 53.66569064 16.88949698 55.08276805 16.9375 56.5 C16.98970703 57.68335937 16.98970703 57.68335937 17.04296875 58.890625 C16.66084871 61.96796502 16.07543422 63.17722866 13.75 65.25 C6.54579997 66.3238655 -2.11634561 66.51689001 -8.25 62.25 C-13.74527127 56.11025198 -13.88508819 50.18070655 -13.5625 42.25 C-13.53994141 41.18910156 -13.51738281 40.12820312 -13.49414062 39.03515625 C-13.4356597 36.43860301 -13.35376454 33.84507134 -13.25 31.25 C-15.23 31.25 -17.21 31.25 -19.25 31.25 C-20.48184766 28.78630468 -20.41732342 27.0605499 -20.4375 24.3125 C-20.45167969 23.43722656 -20.46585938 22.56195313 -20.48046875 21.66015625 C-20.25 19.25 -20.25 19.25 -18.25 16.25 C-16.6 16.25 -14.95 16.25 -13.25 16.25 C-13.25 11.96 -13.25 7.67 -13.25 3.25 C-8.63073457 0.55779009 -5.32539647 -0.11330631 0 0 Z " fill="#DAA8FC" transform="translate(154.25,57.75)"/>
<path d="M0 0 C1.20076172 0.00193359 1.20076172 0.00193359 2.42578125 0.00390625 C5.47660807 0.58877979 6.5698361 1.10455947 8.6875 3.4375 C9.28035492 6.65338751 9.17520058 9.84097622 9.11328125 13.1015625 C9.10999313 14.04937592 9.10670502 14.99718933 9.10331726 15.97372437 C9.09289507 17.97604237 9.07294289 19.97833008 9.04418945 21.98046875 C9.00007228 25.05745891 8.98275059 28.1336701 8.97070312 31.2109375 C8.95728138 33.15365718 8.94235905 35.09636719 8.92578125 37.0390625 C8.91839432 37.96506256 8.91100739 38.89106262 8.90339661 39.84512329 C8.89056137 40.69625702 8.87772614 41.54739075 8.86450195 42.42431641 C8.85465775 43.17693756 8.84481354 43.92955872 8.83467102 44.70498657 C8.6875 46.4375 8.6875 46.4375 7.6875 47.4375 C0.74537052 48.63902241 -6.27996055 48.78861063 -13.3125 48.4375 C-14.3125 47.4375 -14.3125 47.4375 -14.43275452 45.68479919 C-14.43053391 44.92312943 -14.42831329 44.16145966 -14.42602539 43.37670898 C-14.42594986 42.51589218 -14.42587433 41.65507538 -14.42579651 40.76817322 C-14.42063522 39.83276199 -14.41547394 38.89735077 -14.41015625 37.93359375 C-14.4087413 36.98057877 -14.40732635 36.02756378 -14.40586853 35.04566956 C-14.40025152 31.98874835 -14.38769616 28.93189923 -14.375 25.875 C-14.36998719 23.80794376 -14.36542391 21.74088638 -14.36132812 19.67382812 C-14.35027656 14.59502412 -14.33300055 9.5162743 -14.3125 4.4375 C-12.87536436 3.7769956 -11.43585714 3.12164959 -9.99536133 2.46850586 C-9.19399246 2.10301132 -8.3926236 1.73751678 -7.56697083 1.36094666 C-4.95440465 0.2908217 -2.82029426 -0.06923799 0 0 Z " fill="#D7A5F8" transform="translate(121.3125,74.5625)"/>
<path d="M0 0 C2.85459184 2.37882653 2.85459184 2.37882653 3.1875 5.375 C2.875 8.5625 2.875 8.5625 1 10.875 C-3.81622332 14.69964793 -9.19845862 14.11490732 -15.125 13.5625 C-18.375 12 -18.375 12 -20.125 9.5625 C-20.62693575 5.98620779 -20.93042516 3.71310737 -18.8125 0.6875 C-13.55402448 -2.81815034 -5.55574246 -2.55564153 0 0 Z " fill="#D8A6F9" transform="translate(127.125,58.4375)"/>
</svg>
